<svg width="0" height="0" xmlns="http://www.w3.org/2000/svg" xmlns:xlink="http://www.w3.org/1999/xlink">
 <symbol id="twitter" width="23" height="20" viewBox="0 0 23 20" fill="none">
  <path d="M22.9912 1.95021C22.9913 1.77357 22.9447 1.60007 22.8559 1.44735C22.7671 1.29464 22.6395 1.16817 22.486 1.08084C22.3324 0.993502 22.1585 0.948416 21.9819 0.95017C21.8053 0.951925 21.6323 1.00046 21.4805 1.09083C20.8952 1.43921 20.265 1.70601 19.6075 1.88383C18.6685 1.07806 17.4708 0.637129 16.2335 0.641636C14.8761 0.643198 13.5724 1.17223 12.5977 2.11702C11.623 3.06181 11.0537 4.3484 11.0099 5.70512C8.33384 5.27838 5.90849 3.88164 4.19631 1.78126C4.09315 1.65609 3.9614 1.55757 3.81217 1.494C3.66295 1.43043 3.50062 1.40368 3.33889 1.41601C3.17725 1.42932 3.02128 1.4818 2.88448 1.56892C2.74768 1.65603 2.63416 1.77516 2.55373 1.91601C2.14126 2.63582 1.90436 3.44276 1.86228 4.27131C1.8202 5.09986 1.97412 5.92666 2.31154 6.68456L2.30959 6.68651C2.15794 6.77991 2.03278 6.91066 1.94609 7.06625C1.85941 7.22185 1.81409 7.39708 1.81447 7.57519C1.81263 7.72211 1.82145 7.86898 1.84084 8.01464C1.94298 9.2729 2.50062 10.4507 3.4092 11.3271C3.34756 11.4446 3.30994 11.5731 3.29854 11.7052C3.28714 11.8373 3.30218 11.9704 3.34279 12.0967C3.7389 13.3308 4.58129 14.3727 5.7051 15.0185C4.56334 15.46 3.33052 15.614 2.11525 15.4668C1.89032 15.4386 1.66248 15.4876 1.4691 15.6059C1.27572 15.7242 1.12828 15.9047 1.05097 16.1178C0.973654 16.3309 0.97106 16.5639 1.04361 16.7787C1.11616 16.9935 1.25955 17.1772 1.45025 17.2998C3.54034 18.646 5.97393 19.3617 8.46002 19.3613C11.2793 19.393 14.03 18.4921 16.2843 16.7988C18.5385 15.1054 20.17 12.7145 20.9248 9.99801C21.2779 8.81464 21.4582 7.58648 21.46 6.35157C21.46 6.28614 21.46 6.21876 21.459 6.15138C21.9811 5.58831 22.3856 4.92668 22.6487 4.20527C22.9118 3.48387 23.0283 2.7172 22.9912 1.95021ZM19.6846 5.16212C19.5194 5.35746 19.4358 5.60891 19.4512 5.86427C19.461 6.02927 19.46 6.19527 19.46 6.35157C19.4579 7.39511 19.305 8.43287 19.0059 9.43263C18.3894 11.744 17.015 13.7817 15.103 15.2192C13.1909 16.6568 10.8517 17.4111 8.46002 17.3613C7.6009 17.3616 6.74474 17.2606 5.90924 17.0606C6.97465 16.7172 7.97083 16.1879 8.85162 15.4971C9.01385 15.3693 9.13257 15.1945 9.19151 14.9967C9.25044 14.7988 9.2467 14.5875 9.18079 14.3918C9.11489 14.1961 8.99005 14.0257 8.8234 13.9038C8.65675 13.7819 8.45647 13.7145 8.25002 13.7109C7.41885 13.698 6.62515 13.363 6.03615 12.7764C6.18557 12.7481 6.33401 12.7129 6.48147 12.6709C6.69748 12.6094 6.88651 12.477 7.01813 12.295C7.14975 12.1131 7.21629 11.8921 7.20704 11.6677C7.1978 11.4433 7.1133 11.2285 6.96715 11.058C6.82101 10.8874 6.62173 10.7711 6.40139 10.7275C5.91893 10.6323 5.46494 10.427 5.0747 10.1277C4.68447 9.82845 4.36852 9.44321 4.15139 9.00196C4.33212 9.02662 4.514 9.04194 4.69631 9.04786C4.91289 9.05113 5.1249 8.98543 5.30169 8.86026C5.47847 8.73509 5.61086 8.55694 5.67971 8.35157C5.74569 8.14433 5.74229 7.92123 5.67004 7.7161C5.59778 7.51096 5.46061 7.33499 5.27932 7.21485C4.83947 6.92182 4.47916 6.52427 4.23068 6.0578C3.98219 5.59134 3.85328 5.07052 3.85549 4.54201C3.85549 4.47561 3.85744 4.4092 3.86135 4.34377C6.10261 6.43402 9.00967 7.66621 12.0703 7.82326C12.2248 7.82934 12.3787 7.80024 12.5203 7.73816C12.6619 7.67607 12.7875 7.58262 12.8877 7.46486C12.9869 7.34596 13.0571 7.20566 13.0929 7.05501C13.1286 6.90437 13.1289 6.74748 13.0937 6.5967C13.0366 6.35806 13.0074 6.11357 13.0068 5.86818C13.0077 5.01271 13.348 4.19254 13.9529 3.58764C14.5578 2.98274 15.378 2.64251 16.2334 2.64161C16.6736 2.64043 17.1092 2.7305 17.5127 2.90615C17.9163 3.0818 18.2791 3.3392 18.5781 3.66212C18.6935 3.7862 18.8386 3.87871 18.9998 3.93085C19.161 3.98299 19.3329 3.99303 19.499 3.96001C19.9098 3.88006 20.3147 3.7724 20.7109 3.63775C20.4407 4.19072 20.0953 4.70369 19.6846 5.16212Z" fill="#F5EFDB"/>
 </symbol>
 <symbol id="instagram" width="24" height="24" viewBox="0 0 24 24" fill="none">
  <path d="M17.34 5.46C17.1027 5.46 16.8707 5.53038 16.6733 5.66224C16.476 5.79409 16.3222 5.98151 16.2313 6.20078C16.1405 6.42005 16.1168 6.66133 16.1631 6.89411C16.2094 7.12689 16.3236 7.34071 16.4915 7.50853C16.6593 7.67635 16.8731 7.79064 17.1059 7.83694C17.3387 7.88324 17.5799 7.85948 17.7992 7.76866C18.0185 7.67783 18.2059 7.52402 18.3378 7.32668C18.4696 7.12935 18.54 6.89734 18.54 6.66C18.54 6.34174 18.4136 6.03652 18.1885 5.81147C17.9635 5.58643 17.6583 5.46 17.34 5.46ZM21.94 7.88C21.9206 7.0503 21.7652 6.2294 21.48 5.45C21.2257 4.78313 20.83 4.17928 20.32 3.68C19.8248 3.16743 19.2196 2.77418 18.55 2.53C17.7727 2.23616 16.9508 2.07721 16.12 2.06C15.06 2 14.72 2 12 2C9.28 2 8.94 2 7.88 2.06C7.04915 2.07721 6.22734 2.23616 5.45 2.53C4.78168 2.77665 4.17693 3.16956 3.68 3.68C3.16743 4.17518 2.77418 4.78044 2.53 5.45C2.23616 6.22734 2.07721 7.04915 2.06 7.88C2 8.94 2 9.28 2 12C2 14.72 2 15.06 2.06 16.12C2.07721 16.9508 2.23616 17.7727 2.53 18.55C2.77418 19.2196 3.16743 19.8248 3.68 20.32C4.17693 20.8304 4.78168 21.2234 5.45 21.47C6.22734 21.7638 7.04915 21.9228 7.88 21.94C8.94 22 9.28 22 12 22C14.72 22 15.06 22 16.12 21.94C16.9508 21.9228 17.7727 21.7638 18.55 21.47C19.2196 21.2258 19.8248 20.8326 20.32 20.32C20.8322 19.8226 21.2283 19.2182 21.48 18.55C21.7652 17.7706 21.9206 16.9497 21.94 16.12C21.94 15.06 22 14.72 22 12C22 9.28 22 8.94 21.94 7.88ZM20.14 16C20.1327 16.6348 20.0178 17.2637 19.8 17.86C19.6403 18.2952 19.3839 18.6884 19.05 19.01C18.7256 19.3405 18.3332 19.5964 17.9 19.76C17.3037 19.9778 16.6748 20.0927 16.04 20.1C15.04 20.15 14.67 20.16 12.04 20.16C9.41 20.16 9.04 20.16 8.04 20.1C7.38089 20.1123 6.72459 20.0109 6.1 19.8C5.68578 19.6281 5.31136 19.3728 5 19.05C4.66809 18.7287 4.41484 18.3352 4.26 17.9C4.01586 17.2952 3.88044 16.6519 3.86 16C3.86 15 3.8 14.63 3.8 12C3.8 9.37 3.8 9 3.86 8C3.86448 7.35106 3.98295 6.70795 4.21 6.1C4.38605 5.67791 4.65627 5.30166 5 5C5.30381 4.65617 5.67929 4.3831 6.1 4.2C6.70955 3.98004 7.352 3.86508 8 3.86C9 3.86 9.37 3.8 12 3.8C14.63 3.8 15 3.8 16 3.86C16.6348 3.86728 17.2637 3.98225 17.86 4.2C18.3144 4.36865 18.7223 4.64285 19.05 5C19.3777 5.30718 19.6338 5.68273 19.8 6.1C20.0223 6.70893 20.1373 7.35178 20.14 8C20.19 9 20.2 9.37 20.2 12C20.2 14.63 20.19 15 20.14 16ZM12 6.87C10.9858 6.87198 9.99496 7.17453 9.15265 7.73942C8.31035 8.30431 7.65438 9.1062 7.26763 10.0438C6.88089 10.9813 6.78072 12.0125 6.97979 13.0069C7.17886 14.0014 7.66824 14.9145 8.38608 15.631C9.10392 16.3474 10.018 16.835 11.0129 17.0321C12.0077 17.2293 13.0387 17.1271 13.9755 16.7385C14.9123 16.35 15.7129 15.6924 16.2761 14.849C16.8394 14.0056 17.14 13.0142 17.14 12C17.1413 11.3251 17.0092 10.6566 16.7512 10.033C16.4933 9.40931 16.1146 8.84281 15.6369 8.36605C15.1592 7.88929 14.5919 7.51168 13.9678 7.25493C13.3436 6.99818 12.6749 6.86736 12 6.87ZM12 15.33C11.3414 15.33 10.6976 15.1347 10.15 14.7688C9.60234 14.4029 9.17552 13.8828 8.92348 13.2743C8.67144 12.6659 8.6055 11.9963 8.73398 11.3503C8.86247 10.7044 9.17963 10.111 9.64533 9.64533C10.111 9.17963 10.7044 8.86247 11.3503 8.73398C11.9963 8.6055 12.6659 8.67144 13.2743 8.92348C13.8828 9.17552 14.4029 9.60234 14.7688 10.15C15.1347 10.6976 15.33 11.3414 15.33 12C15.33 12.4373 15.2439 12.8703 15.0765 13.2743C14.9092 13.6784 14.6639 14.0454 14.3547 14.3547C14.0454 14.6639 13.6784 14.9092 13.2743 15.0765C12.8703 15.2439 12.4373 15.33 12 15.33Z" fill="#F5EFDB"/>
 </symbol>
  <symbol id="facebook" width="24" height="24" viewBox="0 0 24 24" fill="none">
  <path d="M15.12 5.32003H17V2.14003C16.0897 2.04538 15.1751 1.99865 14.26 2.00003C11.54 2.00003 9.67999 3.66003 9.67999 6.70003V9.32003H6.60999V12.88H9.67999V22H13.36V12.88H16.42L16.88 9.32003H13.36V7.05003C13.36 6.00003 13.64 5.32003 15.12 5.32003Z" fill="#F5EFDB"/>
 </symbol>
</svg>
